<?xml version="1.0" encoding="utf-8"?>
<!DOCTYPE svg PUBLIC "-//W3C//DTD SVG 1.0//EN" "http://www.w3.org/TR/2001/REC-SVG-20010904/DTD/svg10.dtd">
<svg version="1.0" xmlns="http://www.w3.org/2000/svg" width="134px" height="66px" viewBox="0 0 134 66" preserveAspectRatio="xMidYMid meet">
 <g fill="#2ca378" stroke="#2ca378" stroke-width="1">
  <path d="M101.8 61 c-8 -2.4 -12.8 -9.4 -12.8 -18.7 l0 -5.7 -10.9 10.7 c-10.3 10.2 -11 10.7 -15 10.7 -3.7 0 -4.9 -0.6 -9.6 -5 -2.9 -2.8 -5.9 -6.5 -6.6 -8.3 -0.7 -1.8 -1.4 -3.4 -1.6 -3.6 -0.2 -0.3 -4.7 4.1 -10.1 9.7 -9.7 10.1 -9.8 10.2 -14.5 10.2 -4.5 0 -5.1 -0.3 -10.7 -6.1 -6.6 -6.8 -7.2 -8.7 -4.1 -14.7 2.4 -4.5 29.7 -31.7 32.8 -32.7 1.3 -0.3 3.7 0.1 5.8 1 4.2 2 5.5 5.8 5.5 15.7 0 3.7 0.4 6.9 0.8 7.2 0.5 0.3 6.4 -5.1 13.3 -12 13.6 -13.8 16.6 -15.9 21 -14.9 4.9 1.1 6.5 4.3 7.2 14.6 0.4 5.1 0.9 9.4 1.2 9.7 0.2 0.2 2.1 -0.5 4.1 -1.7 4.8 -2.9 13 -3 18.1 -0.4 4.9 2.5 9.3 8.8 10 14.1 1.7 12.9 -11.4 24 -23.9 20.2z"/>
 </g>
</svg>