<?xml version="1.0" standalone="no"?>
<!DOCTYPE svg PUBLIC "-//W3C//DTD SVG 20010904//EN"
 "http://www.w3.org/TR/2001/REC-SVG-20010904/DTD/svg10.dtd">
<svg version="1.0" xmlns="http://www.w3.org/2000/svg"
 width="124.000000pt" height="101.000000pt" viewBox="0 0 124.000000 101.000000"
 preserveAspectRatio="xMidYMid meet">

<g transform="translate(0.000000,101.000000) scale(0.100000,-0.100000)"
fill="#2ca378" stroke="none">
<path d="M577 890 c-14 -11 -34 -20 -46 -20 -11 0 -28 -11 -37 -25 -14 -21
-15 -31 -5 -51 6 -14 20 -28 31 -31 11 -3 20 -12 20 -19 0 -17 1 -17 36 1 36
19 91 19 124 0 32 -18 40 -18 40 -2 0 8 11 19 24 25 45 20 38 86 -11 98 -15 4
-40 15 -55 25 -34 25 -89 24 -121 -1z"/>
<path d="M1000 874 c-94 -40 -110 -50 -110 -70 0 -21 16 -18 117 23 79 32 93
41 93 61 0 12 -3 22 -7 22 -5 -1 -46 -17 -93 -36z"/>
<path d="M238 847 c-84 -84 -164 -341 -112 -361 28 -11 84 -6 114 9 62 32 111
146 113 261 2 120 -47 159 -115 91z m19 -105 c15 -10 33 -56 33 -86 0 -16 -7
-26 -22 -30 -34 -9 -81 -7 -98 4 -13 8 -13 14 4 44 20 38 52 76 64 76 4 0 12
-4 19 -8z"/>
<path d="M944 728 c-43 -52 -66 -114 -66 -178 0 -56 -1 -58 -30 -64 -17 -3
-48 -6 -70 -6 -35 0 -39 2 -33 20 6 19 4 19 -29 -4 -25 -17 -57 -26 -105 -31
-85 -8 -124 6 -129 48 -5 39 -17 33 -43 -20 -12 -27 -27 -51 -33 -55 -6 -4
-69 -8 -141 -9 -139 -1 -190 -8 -187 -24 3 -15 160 -92 201 -99 42 -7 93 16
116 51 l17 25 22 -21 c25 -23 44 -25 176 -17 192 12 342 38 448 78 45 17 56
26 77 68 14 27 25 54 25 60 0 5 -23 1 -50 -10 -72 -28 -95 -26 -123 13 -26 34
-43 87 -28 87 4 0 28 -7 51 -15 24 -8 45 -14 47 -12 1 2 14 30 27 63 l25 59
-27 12 c-15 7 -46 12 -69 13 -35 0 -46 -5 -69 -32z"/>
<path d="M580 695 c0 -8 5 -15 10 -15 6 0 10 7 10 15 0 8 -4 15 -10 15 -5 0
-10 -7 -10 -15z"/>
<path d="M680 695 c0 -8 5 -15 10 -15 6 0 10 7 10 15 0 8 -4 15 -10 15 -5 0
-10 -7 -10 -15z"/>
<path d="M592 634 c-13 -9 -30 -13 -38 -10 -10 4 -14 1 -12 -6 6 -18 190 -18
196 0 2 7 -2 10 -12 6 -8 -3 -25 1 -38 10 -12 9 -34 16 -48 16 -14 0 -36 -7
-48 -16z"/>
<path d="M287 220 c3 -36 7 -68 9 -71 5 -8 57 -5 72 5 6 4 21 2 32 -4 21 -11
40 -6 40 11 0 6 -4 8 -9 4 -10 -6 -120 45 -120 57 -1 3 19 14 44 25 25 10 45
22 45 26 0 10 -33 1 -72 -19 -35 -18 -36 -18 -42 9 -2 12 -2 -7 1 -43z m54
-40 l24 -19 -32 -1 c-26 0 -33 4 -33 20 0 25 11 25 41 0z"/>
<path d="M433 235 c0 -27 2 -38 4 -22 2 15 2 37 0 50 -2 12 -4 0 -4 -28z"/>
<path d="M207 212 c-33 -23 -36 -27 -20 -33 14 -6 14 -8 2 -8 -8 -1 -24 -8
-35 -16 -15 -12 -16 -16 -5 -24 7 -5 10 -14 7 -20 -9 -15 -59 -14 -74 1 -7 7
-12 8 -12 2 0 -17 23 -34 45 -34 32 0 67 29 60 50 -5 15 3 20 47 31 32 8 45
14 33 17 -47 8 -49 11 -25 37 29 31 25 30 -23 -3z"/>
<path d="M462 205 c0 -16 2 -22 5 -12 2 9 2 23 0 30 -3 6 -5 -1 -5 -18z"/>
<path d="M562 187 c-23 -23 -42 -47 -42 -52 1 -13 47 -65 57 -65 15 0 83 75
83 91 0 8 -13 27 -28 42 l-28 27 -42 -43z"/>
<path d="M110 60 c0 -5 4 -10 9 -10 6 0 13 5 16 10 3 6 -1 10 -9 10 -9 0 -16
-4 -16 -10z"/>
</g>
</svg>
